HIERARCHY
ROOT joint_Root
{
	OFFSET 0.0 0.0 0.0
	CHANNELS 6 Xposition Yposition Zposition Zrotation Xrotation Yrotation 
	JOINT Hips
	{
		OFFSET -17.1583 93.1646 452.98
		CHANNELS 6 Xposition Yposition Zposition Zrotation Xrotation Yrotation 
		JOINT Spine
		{
			OFFSET 15.7357 0.0 0.0
			CHANNELS 6 Xposition Yposition Zposition Zrotation Xrotation Yrotation 
			JOINT Chest
			{
				OFFSET 8.98455 -0.406207 0.0
				CHANNELS 6 Xposition Yposition Zposition Zrotation Xrotation Yrotation 
				JOINT Neck
				{
					OFFSET 16.3773 0.0 0.0
					CHANNELS 6 Xposition Yposition Zposition Zrotation Xrotation Yrotation 
					JOINT Head
					{
						OFFSET 6.45672 0.0 0.0
						CHANNELS 6 Xposition Yposition Zposition Zrotation Xrotation Yrotation 
						End Site
						{
							OFFSET 0.0 0.0 0.0
						}
					}
				}
				JOINT Shoulder_L
				{
					OFFSET 12.9942 -0.242716 4.98039
					CHANNELS 6 Xposition Yposition Zposition Zrotation Xrotation Yrotation 
					JOINT UpperArm_L
					{
						OFFSET 5.34809 0.0 0.0
						CHANNELS 6 Xposition Yposition Zposition Zrotation Xrotation Yrotation 
						JOINT LowerArm_L
						{
							OFFSET 24.3286 1.87007e-05 0.0
							CHANNELS 6 Xposition Yposition Zposition Zrotation Xrotation Yrotation 
							JOINT Hand_L
							{
								OFFSET 22.2916 0.0 0.0
								CHANNELS 6 Xposition Yposition Zposition Zrotation Xrotation Yrotation 
								End Site
								{
									OFFSET 0.0 0.0 0.0
								}
							}
						}
					}
				}
				JOINT Shoulder_R
				{
					OFFSET 12.9945 -0.242716 -4.98039
					CHANNELS 6 Xposition Yposition Zposition Zrotation Xrotation Yrotation 
					JOINT UpperArm_R
					{
						OFFSET -5.34813 0.0 0.0
						CHANNELS 6 Xposition Yposition Zposition Zrotation Xrotation Yrotation 
						JOINT LowerArm_R
						{
							OFFSET -24.3289 0.000322201 0.0
							CHANNELS 6 Xposition Yposition Zposition Zrotation Xrotation Yrotation 
							JOINT Hand_R
							{
								OFFSET -22.2915 -0.000108084 0.0
								CHANNELS 6 Xposition Yposition Zposition Zrotation Xrotation Yrotation 
								End Site
								{
									OFFSET 0.0 0.0 0.0
								}
							}
						}
					}
				}
			}
		}
		JOINT UpperLeg_L
		{
			OFFSET -2.19248 -6.46944 0.0
			CHANNELS 6 Xposition Yposition Zposition Zrotation Xrotation Yrotation 
			JOINT LowerLeg_L
			{
				OFFSET 39.0811 0.0 -1.23785e-05
				CHANNELS 6 Xposition Yposition Zposition Zrotation Xrotation Yrotation 
				JOINT Foot_L
				{
					OFFSET 40.9854 0.0 -1.26872e-05
					CHANNELS 6 Xposition Yposition Zposition Zrotation Xrotation Yrotation 
					JOINT Toes_L
					{
						OFFSET 11.7543 0.0 0.0
						CHANNELS 6 Xposition Yposition Zposition Zrotation Xrotation Yrotation 
						End Site
						{
							OFFSET 0.0 0.0 0.0
						}
					}
				}
			}
		}
		JOINT UpperLeg_R
		{
			OFFSET -2.19251 6.46944 0.0
			CHANNELS 6 Xposition Yposition Zposition Zrotation Xrotation Yrotation 
			JOINT LowerLeg_R
			{
				OFFSET -39.0811 -0.00228153 -0.0401928
				CHANNELS 6 Xposition Yposition Zposition Zrotation Xrotation Yrotation 
				JOINT Foot_R
				{
					OFFSET -40.9854 0.0 0.0
					CHANNELS 6 Xposition Yposition Zposition Zrotation Xrotation Yrotation 
					JOINT Toes_R
					{
						OFFSET -11.7543 0.0 0.0
						CHANNELS 6 Xposition Yposition Zposition Zrotation Xrotation Yrotation 
						End Site
						{
							OFFSET 0.0 0.0 0.0
						}
					}
				}
			}
		}
	}
}
MOTION
Frames:	4
Frame Time:	0.0333333
0.000000 0.000000 0.000000 0.000000 0.000000 -0.000000 -2.810100 91.704000 1.338770 85.642100 -1.040000 8.638370 15.735700 0.000005 -0.000001 71.932800 85.259900 -69.378300 8.984550 -0.406207 -0.000000 1.322760 -3.082280 5.141270 16.377300 -0.000001 -0.000001 15.437800 5.558620 7.477460 6.456720 -0.000001 -0.000000 -9.482100 4.372150 21.066400 12.994200 -0.242716 4.980390 -92.284000 6.178130 -69.665500 5.348090 -0.000007 -0.000001 -78.221400 -27.269100 -8.404300 24.328600 0.000019 0.000005 27.245400 -31.343500 -135.290000 22.291600 -0.000001 0.000005 47.916700 4.911360 9.150340 12.994500 -0.242716 -4.980390 86.316100 8.454910 -66.351200 -5.348130 -0.000001 -0.000004 -69.315900 -4.456760 -9.380890 -24.328900 0.000322 -0.000009 11.419100 -13.555900 -139.247000 -22.291500 -0.000108 -0.000004 56.986000 5.674750 -18.215300 -2.192480 -6.469440 -0.000000 -175.025000 -1.017710 2.731820 39.081100 -0.000007 -0.000012 0.392047 -0.760546 27.271300 40.985400 -0.000006 -0.000013 1.022340 2.718570 -76.600700 11.754300 -0.000000 0.000003 -0.000575 0.176794 -9.405600 -2.192510 6.469440 -0.000001 -173.621000 10.328500 -170.966000 -39.081100 -0.002282 -0.040193 0.128367 -0.414128 16.801000 -40.985400 0.000008 0.000006 5.000570 5.631770 -72.883700 -11.754300 -0.000006 -0.000006 -0.011202 0.280079 -5.191970
0.000000 0.000000 0.000000 0.000000 0.000000 -0.000000 -2.730160 91.723200 1.311090 85.666600 -1.045400 8.588350 15.735700 0.000005 -0.000001 72.120000 85.266600 -69.613300 8.984550 -0.406207 -0.000000 1.317210 -3.046140 5.045280 16.377300 -0.000001 -0.000001 15.407600 5.581920 7.442470 6.456720 -0.000001 -0.000000 -9.458420 4.398290 21.012800 12.994200 -0.242716 4.980390 -92.290300 6.190080 -69.649400 5.348090 -0.000007 -0.000001 -78.182500 -27.517700 -8.364580 24.328600 0.000019 0.000005 27.462400 -31.448000 -135.110000 22.291600 -0.000001 0.000005 47.994900 4.897610 9.425340 12.994500 -0.242716 -4.980390 86.326100 8.439270 -66.370100 -5.348130 -0.000001 -0.000004 -69.308900 -4.350940 -9.302360 -24.328900 0.000322 -0.000009 11.325500 -13.405800 -139.177000 -22.291500 -0.000108 -0.000004 56.792200 5.674620 -18.188500 -2.192480 -6.469440 -0.000000 -175.107000 -1.057990 2.718860 39.081100 -0.000007 -0.000012 0.394269 -0.768305 27.166400 40.985400 -0.000006 -0.000013 1.089810 2.739400 -76.555300 11.754300 -0.000000 0.000003 -0.000555 0.176490 -9.417950 -2.192510 6.469440 -0.000001 -173.687000 10.268900 -171.052000 -39.081100 -0.002282 -0.040193 0.126564 -0.407574 16.823800 -40.985400 0.000008 0.000006 4.813820 5.623060 -72.870800 -11.754300 -0.000006 -0.000006 -0.011541 0.282479 -5.093720
0.000000 0.000000 0.000000 0.000000 0.000000 -0.000000 -2.652340 91.736800 1.267590 85.681300 -1.076820 8.508670 15.735700 0.000005 -0.000001 72.486300 85.286400 -70.011600 8.984550 -0.406207 -0.000000 1.295200 -2.975300 4.979670 16.377300 -0.000001 -0.000001 15.331600 5.570010 7.362270 6.456720 -0.000001 -0.000000 -9.351280 4.371390 20.936200 12.994200 -0.242716 4.980390 -92.287000 6.165490 -69.602500 5.348090 -0.000007 -0.000001 -78.207500 -27.706700 -8.343370 24.328600 0.000019 0.000005 27.299300 -31.228700 -135.129000 22.291600 -0.000001 0.000005 47.778500 4.906260 9.252560 12.994500 -0.242716 -4.980390 86.358400 8.382740 -66.415800 -5.348130 -0.000001 -0.000004 -69.353800 -4.252360 -9.216880 -24.328900 0.000322 -0.000009 11.500200 -13.576600 -139.083000 -22.291500 -0.000108 -0.000004 56.830400 5.672840 -17.853100 -2.192480 -6.469440 -0.000000 -175.145000 -1.168920 2.630600 39.081100 -0.000007 -0.000012 0.387375 -0.756651 27.111600 40.985400 -0.000006 -0.000013 1.148710 2.777650 -76.450600 11.754300 -0.000000 0.000003 -0.000771 0.179722 -9.286620 -2.192510 6.469440 -0.000001 -173.686000 10.047900 -171.182000 -39.081100 -0.002282 -0.040193 0.126554 -0.407030 16.843700 -40.985400 0.000008 0.000006 4.765150 5.531990 -72.816500 -11.754300 -0.000006 -0.000006 -0.011169 0.279843 -5.201630
0.000000 0.000000 0.000000 0.000000 0.000000 -0.000000 -2.579910 91.763800 1.232160 85.697200 -1.064170 8.479860 15.735700 0.000005 -0.000001 72.748100 85.285300 -70.302400 8.984550 -0.406207 -0.000000 1.308460 -2.932950 4.921480 16.377300 -0.000001 -0.000001 15.296300 5.538040 7.296510 6.456720 -0.000001 -0.000000 -9.383160 4.325830 20.782200 12.994200 -0.242716 4.980390 -92.285400 6.155840 -69.586600 5.348090 -0.000007 -0.000001 -78.134100 -27.771700 -8.301120 24.328600 0.000019 0.000005 27.433500 -31.299700 -135.023000 22.291600 -0.000001 0.000005 47.908300 4.893300 9.511000 12.994500 -0.242716 -4.980390 86.344100 8.404790 -66.388300 -5.348130 -0.000001 -0.000004 -69.323500 -4.190860 -9.188300 -24.328900 0.000322 -0.000009 11.366100 -13.404200 -139.069000 -22.291500 -0.000108 -0.000004 56.781100 5.673790 -18.028100 -2.192480 -6.469440 -0.000000 -175.201000 -1.239780 2.646120 39.081100 -0.000007 -0.000012 0.389230 -0.764708 26.976700 40.985400 -0.000006 -0.000013 1.224940 2.860750 -76.410800 11.754300 -0.000000 0.000003 -0.000709 0.178815 -9.323490 -2.192510 6.469440 -0.000001 -173.778000 10.077900 -171.226000 -39.081100 -0.002282 -0.040193 0.119851 -0.385661 16.811900 -40.985400 0.000008 0.000006 4.489440 5.570650 -72.709600 -11.754300 -0.000006 -0.000006 -0.011224 0.280232 -5.185700
